<?xml version='1.0' encoding='iso-8859-1'?>
<svg version="1.1" xmlns="http://www.w3.org/2000/svg" viewBox="28 29 44 44" xmlns:xlink="http://www.w3.org/1999/xlink" enable-background="new 0 0 99.894 99.894">
  <g>
    <path d="m66.105,29.968h-0.782c-2.67,0-4.554,2.186-4.554,4.856v12.169c-1-0.243-0.659-0.467-0.958-0.658l-23.109-14.67c-1.536-0.979-3.594-1.042-5.194-0.164-1.601,0.878-2.738,2.492-2.738,4.317v29.319c0,1.824 1.102,3.438 2.7,4.315 0.752,0.413 1.638,0.618 2.447,0.618 0.913,0 1.859-0.261 2.673-0.779l23.201-14.649c0.3-0.191-0.022-0.416 0.978-0.659v11.087c0,2.67 1.884,4.898 4.554,4.898h0.782c2.67,0 4.664-2.228 4.664-4.898v-30.246c0.001-2.67-1.994-4.856-4.664-4.856zm2.665,35.157c0,1.57-1.273,2.843-2.843,2.843h-0.314c-1.57,0-2.843-1.273-2.843-2.843v-30.314c0-1.57 1.273-2.843 2.843-2.843h0.314c1.57,0 2.843,1.273 2.843,2.843v30.314zm-36.337,2.574c-0.949-0.521-1.663-1.479-1.663-2.562v-29.319c0-1.084 0.714-2.042 1.664-2.563 0.446-0.245 1.001-0.367 1.481-0.367 0.542,0 1.12,0.155 1.604,0.464l23.055,14.67c0.848,0.54 1.363,1.462 1.362,2.467 0,1.005-0.501,1.927-1.349,2.466l-23.109,14.649c-0.912,0.58-2.096,0.617-3.045,0.095z"/>
  </g>
</svg>
