<?xml version='1.0' encoding='iso-8859-1'?>
<svg version="1.1" xmlns="http://www.w3.org/2000/svg" viewBox="28 29 44 44" xmlns:xlink="http://www.w3.org/1999/xlink" enable-background="new 0 0 100.021 100.021">
  <g>
    <path d="m45.893,35.654c0-2.761-2.239-5-5-5h-7c-2.761,0-5,2.239-5,5v31c0,2.761 2.239,5 5,5h7c2.761,0 5-2.239 5-5v-31zm-2,31c0,1.657-1.343,3-3,3h-7c-1.657,0-3-1.343-3-3v-31c0-1.657 1.343-3 3-3h7c1.657,0 3,1.343 3,3v31z"/>
    <path d="m70.893,35.654c0-2.761-2.239-5-5-5h-7c-2.761,0-5,2.239-5,5v31c0,2.761 2.239,5 5,5h7c2.761,0 5-2.239 5-5v-31zm-2,31c0,1.657-1.343,3-3,3h-7c-1.657,0-3-1.343-3-3v-31c0-1.657 1.343-3 3-3h7c1.657,0 3,1.343 3,3v31z"/>
  </g>
</svg>
