<svg width="512" height="512" xmlns="http://www.w3.org/2000/svg">

 <g>
  <title>background</title>
  <rect fill="none" id="canvas_background" height="402" width="582" y="-1" x="-1"/>
 </g>
 <g>
  <title>Layer 1</title>
  <g stroke="null" id="svg_1">
   <path stroke="null" id="svg_2" fill="#6A6E7C" d="m52.109091,512c-2.214545,0 -4.429091,-0.3 -6.485455,-0.8c-6.169091,-1.7 -10.123636,-5.5 -10.123636,-9.7l0,-491c0,-4.2 3.954545,-8.1 10.123636,-9.7c6.169091,-1.7 13.287273,-0.8 18.032727,2.1l401.781818,245.5c3.321818,2 5.061818,4.7 5.061818,7.6c0,2.9 -1.898182,5.6 -5.061818,7.6l-401.781818,245.4c-3.163636,2 -7.276364,3 -11.547273,3zm16.609091,-476.6l0,441.2l361.129091,-220.6l-361.129091,-220.6z"/>
  </g>
 </g>
</svg>