<?xml version='1.0' encoding='iso-8859-1'?>
<svg version="1.1" xmlns="http://www.w3.org/2000/svg" viewBox="31 27 46 46" xmlns:xlink="http://www.w3.org/1999/xlink" enable-background="new 0 0 99.893 99.893">
  <g>
    <path d="m70.898,45.808l-27.402-17.451c-1.538-0.98-3.58-1.041-5.179-0.163-1.6,0.878-2.721,2.492-2.721,4.316v34.875c0,1.824 1.121,3.438 2.72,4.316 0.752,0.413 1.647,0.618 2.458,0.618 0.913,0 1.863-0.261 2.679-0.779l27.423-17.426c1.428-0.908 2.291-2.46 2.292-4.153 0-1.691-0.842-3.244-2.27-4.153zm-1.075,6.62l-27.403,17.426c-0.915,0.582-2.192,0.617-3.142,0.096-0.95-0.521-1.683-1.479-1.683-2.563v-34.876c0-1.083 0.733-2.042 1.683-2.563 0.446-0.245 1.011-0.367 1.492-0.367 0.542,0 1.125,0.155 1.609,0.463l27.423,17.45c0.848,0.54 1.364,1.462 1.363,2.467 0.002,1.006-0.494,1.927-1.342,2.467z"/>
  </g>
</svg>
