<?xml version='1.0' encoding='iso-8859-1'?>
<svg version="1.1" xmlns="http://www.w3.org/2000/svg" viewBox="28 29 44 44" xmlns:xlink="http://www.w3.org/1999/xlink" enable-background="new 0 0 99.893 99.893">
  <g>
    <path d="m68.308,31.5c-1.599-0.876-3.49-0.816-5.029,0.164l-22.803,14.67c-0.3,0.191-0.581,0.416-0.581,0.659v-12.169c0-2.67-2.655-5.326-5.326-5.326h-0.782c-2.67,0-4.893,2.655-4.893,5.326v30.246c0,2.67 2.222,4.429 4.893,4.429h0.782c2.67,0 5.326-1.758 5.326-4.429v-11.088c0,0.244 0.274,0.469 0.575,0.66l22.916,14.649c0.815,0.519 1.665,0.779 2.577,0.779 0.81,0 1.625-0.205 2.377-0.618 1.599-0.878 2.555-2.491 2.555-4.315v-29.32c0.001-1.825-0.987-3.439-2.587-4.317zm.588,33.637c0,1.083-0.599,2.041-1.548,2.562-0.95,0.521-2.079,0.485-2.992-0.096l-23.046-14.649c-0.848-0.54-1.359-1.461-1.359-2.466 0-1.005 0.504-1.927 1.352-2.467l23.036-14.67c0.485-0.309 1.024-0.464 1.567-0.464 0.48,0 0.995,0.122 1.441,0.367 0.95,0.521 1.549,1.479 1.549,2.563v29.32zm-32-.482c0,1.57-1.273,2.843-2.843,2.843h-0.314c-1.57,0-2.843-1.273-2.843-2.843v-30.314c0-1.57 1.273-2.843 2.843-2.843h0.314c1.57,0 2.843,1.273 2.843,2.843v30.314z"/>
  </g>
</svg>
